<svg width="45" height="47" viewBox="0 0 45 47" fill="none" xmlns="http://www.w3.org/2000/svg">
<path d="M47.2656 10.3125C49.6398 10.3125 51.5625 12.2375 51.5625 14.6094V30.9375H24.0625V14.6094C24.0625 12.2352 25.9875 10.3125 28.3594 10.3125H47.2656ZM24.0625 34.375H51.5625V40.3906C51.5625 42.7625 49.6375 44.6875 47.2656 44.6875H46.4062C46.4062 42.8641 45.6819 41.1155 44.3926 39.8261C43.1033 38.5368 41.3546 37.8125 39.5312 37.8125C37.7079 37.8125 35.9592 38.5368 34.6699 39.8261C33.3806 41.1155 32.6562 42.8641 32.6562 44.6875H25.7812C25.3254 44.6875 24.8882 44.5064 24.5659 44.1841C24.2436 43.8618 24.0625 43.4246 24.0625 42.9688V34.375Z" fill="#C8202F" fill-opacity="0.21"/>
<path d="M36.0938 44.6875C36.0938 43.7759 36.4559 42.9015 37.1006 42.2569C37.7452 41.6122 38.6196 41.25 39.5313 41.25C40.4429 41.25 41.3173 41.6122 41.9619 42.2569C42.6066 42.9015 42.9688 43.7759 42.9688 44.6875C42.9688 45.5992 42.6066 46.4736 41.9619 47.1182C41.3173 47.7629 40.4429 48.125 39.5313 48.125C38.6196 48.125 37.7452 47.7629 37.1006 47.1182C36.4559 46.4736 36.0938 45.5992 36.0938 44.6875ZM18.9063 15.4688C19.3621 15.4688 19.7993 15.6499 20.1216 15.9722C20.4439 16.2945 20.625 16.7317 20.625 17.1875V42.9688C20.625 43.1682 20.5906 43.3584 20.5288 43.5371C20.2431 41.8439 19.3342 40.3189 17.9809 39.2621C16.6275 38.2053 14.9277 37.6932 13.2157 37.8265C11.5038 37.9598 9.90374 38.7289 8.73032 39.9825C7.55689 41.2361 6.89505 42.8835 6.875 44.6005C4.92021 44.1994 3.38708 42.4577 3.52 40.2852C4.03265 31.894 7.00745 23.84 12.0725 17.1302C12.4671 16.6114 12.9767 16.1913 13.5613 15.903C14.1459 15.6147 14.7894 15.466 15.4413 15.4688H18.9063Z" fill="#C8202F" fill-opacity="0.21"/>
<path d="M10.3125 44.6875C10.3125 43.7758 10.6747 42.9015 11.3193 42.2568C11.964 41.6122 12.8383 41.25 13.75 41.25C14.6617 41.25 15.536 41.6122 16.1807 42.2568C16.8253 42.9015 17.1875 43.7758 17.1875 44.6875C17.1875 45.5992 16.8253 46.4735 16.1807 47.1182C15.536 47.7628 14.6617 48.125 13.75 48.125C12.8383 48.125 11.964 47.7628 11.3193 47.1182C10.6747 46.4735 10.3125 45.5992 10.3125 44.6875Z" fill="#C8202F" fill-opacity="0.21"/>
</svg>
