<svg width="72" height="72" viewBox="0 0 72 72" fill="none" xmlns="http://www.w3.org/2000/svg">
<g filter="url(#filter0_d_415_4683)">
<path d="M7 32C7 15.9837 19.9837 3 36 3C52.0163 3 65 15.9837 65 32C65 48.0163 52.0163 61 36 61C19.9837 61 7 48.0163 7 32Z" fill="#C8202F" shape-rendering="crispEdges"/>
<path d="M7 32C7 15.9837 19.9837 3 36 3C52.0163 3 65 15.9837 65 32C65 48.0163 52.0163 61 36 61C19.9837 61 7 48.0163 7 32Z" fill="url(#paint0_linear_415_4683)" fill-opacity="0.12" shape-rendering="crispEdges"/>
<path d="M36 3.5C51.7401 3.5 64.5 16.2599 64.5 32C64.5 47.7401 51.7401 60.5 36 60.5C20.2599 60.5 7.5 47.7401 7.5 32C7.5 16.2599 20.2599 3.5 36 3.5Z" stroke="url(#paint1_linear_415_4683)" stroke-opacity="0.12" shape-rendering="crispEdges"/>
<path d="M46 33.25H26C25.3167 33.25 24.75 32.6833 24.75 32C24.75 31.3167 25.3167 30.75 26 30.75H46C46.6833 30.75 47.25 31.3167 47.25 32C47.25 32.6833 46.6833 33.25 46 33.25Z" fill="white"/>
<path d="M36 43.25C35.3167 43.25 34.75 42.6833 34.75 42V22C34.75 21.3167 35.3167 20.75 36 20.75C36.6833 20.75 37.25 21.3167 37.25 22V42C37.25 42.6833 36.6833 43.25 36 43.25Z" fill="white"/>
</g>
<defs>
<filter id="filter0_d_415_4683" x="0" y="0" width="72" height="72" filterUnits="userSpaceOnUse" color-interpolation-filters="sRGB">
<feFlood flood-opacity="0" result="BackgroundImageFix"/>
<feColorMatrix in="SourceAlpha" type="matrix" values="0 0 0 0 0 0 0 0 0 0 0 0 0 0 0 0 0 0 127 0" result="hardAlpha"/>
<feOffset dy="4"/>
<feGaussianBlur stdDeviation="3.5"/>
<feComposite in2="hardAlpha" operator="out"/>
<feColorMatrix type="matrix" values="0 0 0 0 0 0 0 0 0 0 0 0 0 0 0 0 0 0 0.15 0"/>
<feBlend mode="normal" in2="BackgroundImageFix" result="effect1_dropShadow_415_4683"/>
<feBlend mode="normal" in="SourceGraphic" in2="effect1_dropShadow_415_4683" result="shape"/>
</filter>
<linearGradient id="paint0_linear_415_4683" x1="36" y1="3" x2="36" y2="61" gradientUnits="userSpaceOnUse">
<stop stop-color="white"/>
<stop offset="1" stop-color="white" stop-opacity="0"/>
</linearGradient>
<linearGradient id="paint1_linear_415_4683" x1="36" y1="3" x2="36" y2="61" gradientUnits="userSpaceOnUse">
<stop stop-color="white"/>
<stop offset="1" stop-color="white" stop-opacity="0"/>
</linearGradient>
</defs>
</svg>
