<svg width="11" height="11" viewBox="0 0 11 11" fill="none" xmlns="http://www.w3.org/2000/svg">
<path d="M0.125 9.51514C0.125 9.3651 0.184989 9.2209 0.291016 9.11475L8.14844 1.25732L2.89648 1.25732C2.74639 1.25727 2.60223 1.19744 2.49609 1.09131C2.39008 0.985155 2.33008 0.840955 2.33008 0.690918C2.33017 0.540878 2.38999 0.396628 2.49609 0.290527C2.60222 0.184438 2.74643 0.125537 2.89648 0.125488L9.51465 0.125488C9.66469 0.125576 9.80894 0.184427 9.91504 0.290527C10.0211 0.396628 10.08 0.540878 10.0801 0.690918L10.0801 7.30908C10.08 7.45914 10.0211 7.60334 9.91504 7.70947C9.80894 7.81557 9.66469 7.8754 9.51465 7.87549C9.36461 7.87549 9.22041 7.81549 9.11426 7.70947C9.00812 7.60334 8.94829 7.45917 8.94824 7.30908L8.94824 2.05713L1.09082 9.91455C0.984662 10.0206 0.840467 10.0806 0.69043 10.0806C0.540522 10.0805 0.397089 10.0205 0.291016 9.91455C0.185074 9.80848 0.125095 9.66504 0.125 9.51514Z" fill="black" stroke="black" stroke-width="0.25"/>
</svg>
