<svg width="40" height="40" viewBox="0 0 40 40" fill="none" xmlns="http://www.w3.org/2000/svg">
<rect width="40" height="40" rx="20" transform="matrix(-1 0 0 1 40 0)" fill="#FAEDEE"/>
<path fill-rule="evenodd" clip-rule="evenodd" d="M11.25 13.75C11.25 13.087 11.5134 12.4511 11.9822 11.9822C12.4511 11.5134 13.087 11.25 13.75 11.25H14.8933C15.61 11.25 16.235 11.7383 16.4092 12.4333L17.33 16.1192C17.4046 16.4175 17.3895 16.7312 17.2867 17.021C17.1838 17.3108 16.9977 17.5638 16.7517 17.7483L15.6742 18.5567C15.5617 18.6408 15.5375 18.7642 15.5692 18.85C16.0395 20.129 16.7822 21.2906 17.7458 22.2542C18.7094 23.2178 19.871 23.9605 21.15 24.4308C21.2358 24.4625 21.3583 24.4383 21.4433 24.3258L22.2517 23.2483C22.4362 23.0023 22.6892 22.8162 22.979 22.7133C23.2688 22.6105 23.5825 22.5954 23.8808 22.67L27.5667 23.5908C28.2617 23.765 28.75 24.39 28.75 25.1075V26.25C28.75 26.913 28.4866 27.5489 28.0178 28.0178C27.5489 28.4866 26.913 28.75 26.25 28.75H24.375C17.1267 28.75 11.25 22.8733 11.25 15.625V13.75Z" fill="#C8202F"/>
</svg>
