<svg width="40" height="40" viewBox="0 0 40 40" fill="none" xmlns="http://www.w3.org/2000/svg">
<rect width="40" height="40" rx="20" transform="matrix(-1 0 0 1 40 0)" fill="#FAEDEE"/>
<g clip-path="url(#clip0_415_6866)">
<path d="M21.528 23.807C21.7001 23.886 21.894 23.9041 22.0777 23.8582C22.2615 23.8123 22.4241 23.7052 22.5388 23.5545L22.8346 23.167C22.9899 22.96 23.1912 22.792 23.4226 22.6763C23.654 22.5606 23.9092 22.5003 24.168 22.5003H26.668C27.11 22.5003 27.5339 22.6759 27.8465 22.9885C28.159 23.301 28.3346 23.725 28.3346 24.167V26.667C28.3346 27.109 28.159 27.5329 27.8465 27.8455C27.5339 28.1581 27.11 28.3337 26.668 28.3337C22.6897 28.3337 18.8744 26.7533 16.0614 23.9403C13.2483 21.1272 11.668 17.3119 11.668 13.3337C11.668 12.8916 11.8436 12.4677 12.1561 12.1551C12.4687 11.8426 12.8926 11.667 13.3346 11.667H15.8346C16.2767 11.667 16.7006 11.8426 17.0131 12.1551C17.3257 12.4677 17.5013 12.8916 17.5013 13.3337V15.8337C17.5013 16.0924 17.4411 16.3476 17.3253 16.579C17.2096 16.8104 17.0416 17.0117 16.8346 17.167L16.4446 17.4595C16.2916 17.5763 16.1838 17.7425 16.1395 17.9298C16.0951 18.1171 16.117 18.314 16.2013 18.487C17.3402 20.8002 19.2133 22.671 21.528 23.807Z" stroke="#C8202F" stroke-width="1.5" stroke-linecap="round" stroke-linejoin="round"/>
</g>
<defs>
<clipPath id="clip0_415_6866">
<rect width="20" height="20" fill="white" transform="translate(10 10)"/>
</clipPath>
</defs>
</svg>
