<svg width="42" height="42" viewBox="0 0 42 42" fill="none" xmlns="http://www.w3.org/2000/svg">
<circle cx="21" cy="21" r="21" fill="#FFF2F3"/>
<path fill-rule="evenodd" clip-rule="evenodd" d="M13.848 11.771C16.2161 11.4234 18.6065 11.2493 21 11.25C23.43 11.25 25.817 11.428 28.152 11.77C30.13 12.062 31.5 13.794 31.5 15.74V21.76C31.5 23.706 30.13 25.438 28.152 25.73C26.9983 25.8991 25.8389 26.0268 24.676 26.113C24.6168 26.1169 24.5593 26.1342 24.5079 26.1637C24.4564 26.1931 24.4123 26.234 24.379 26.283L21.624 30.416C21.5555 30.5187 21.4627 30.6029 21.3539 30.6612C21.245 30.7194 21.1235 30.7499 21 30.7499C20.8765 30.7499 20.755 30.7194 20.6461 30.6612C20.5373 30.6029 20.4445 30.5187 20.376 30.416L17.621 26.283C17.5877 26.234 17.5436 26.1931 17.4921 26.1637C17.4407 26.1342 17.3832 26.1169 17.324 26.113C16.1611 26.0265 15.0017 25.8984 13.848 25.729C11.87 25.439 10.5 23.705 10.5 21.759V15.741C10.5 13.795 11.87 12.061 13.848 11.771ZM15.75 17.25C15.75 17.0511 15.829 16.8603 15.9697 16.7197C16.1103 16.579 16.3011 16.5 16.5 16.5H25.5C25.6989 16.5 25.8897 16.579 26.0303 16.7197C26.171 16.8603 26.25 17.0511 26.25 17.25C26.25 17.4489 26.171 17.6397 26.0303 17.7803C25.8897 17.921 25.6989 18 25.5 18H16.5C16.3011 18 16.1103 17.921 15.9697 17.7803C15.829 17.6397 15.75 17.4489 15.75 17.25ZM16.5 19.5C16.3011 19.5 16.1103 19.579 15.9697 19.7197C15.829 19.8603 15.75 20.0511 15.75 20.25C15.75 20.4489 15.829 20.6397 15.9697 20.7803C16.1103 20.921 16.3011 21 16.5 21H21C21.1989 21 21.3897 20.921 21.5303 20.7803C21.671 20.6397 21.75 20.4489 21.75 20.25C21.75 20.0511 21.671 19.8603 21.5303 19.7197C21.3897 19.579 21.1989 19.5 21 19.5H16.5Z" fill="#C8202F"/>
</svg>
