<svg width="43" height="46" viewBox="0 0 43 46" fill="none" xmlns="http://www.w3.org/2000/svg">
<path fill-rule="evenodd" clip-rule="evenodd" d="M5.15625 27.5C5.15625 15.1594 15.1594 5.15625 27.5 5.15625C39.8406 5.15625 49.8438 15.1594 49.8438 27.5C49.8438 39.8406 39.8406 49.8438 27.5 49.8438C15.1594 49.8438 5.15625 39.8406 5.15625 27.5ZM35.7729 23.3429C35.9104 23.1597 36.0099 22.9508 36.0655 22.7286C36.1212 22.5064 36.1318 22.2753 36.0969 22.0489C36.0619 21.8225 35.982 21.6054 35.862 21.4103C35.7419 21.2153 35.584 21.0462 35.3977 20.9129C35.2113 20.7797 35.0002 20.6851 34.7768 20.6347C34.5533 20.5842 34.322 20.579 34.0965 20.6192C33.871 20.6594 33.6558 20.7443 33.4636 20.8689C33.2713 20.9934 33.1059 21.1552 32.9771 21.3446L25.5613 31.7258L21.8396 28.0042C21.5138 27.7006 21.0828 27.5353 20.6376 27.5431C20.1923 27.551 19.7674 27.7314 19.4525 28.0463C19.1376 28.3612 18.9572 28.786 18.9494 29.2313C18.9415 29.6766 19.1068 30.1075 19.4104 30.4333L24.5667 35.5896C24.7431 35.7659 24.9558 35.9017 25.19 35.9875C25.4242 36.0734 25.6742 36.1072 25.9228 36.0867C26.1714 36.0662 26.4125 35.9919 26.6295 35.8688C26.8464 35.7458 27.034 35.577 27.1792 35.3742L35.7729 23.3429Z" fill="#C8202F" fill-opacity="0.21"/>
</svg>
