<svg width="41" height="41" viewBox="0 0 41 41" fill="none" xmlns="http://www.w3.org/2000/svg">
<circle cx="20.3593" cy="20.3593" r="20.3593" fill="#CD3542"/>
<path fill-rule="evenodd" clip-rule="evenodd" d="M12.7256 12.0879C12.5568 12.0879 12.395 12.1549 12.2757 12.2742C12.1564 12.3935 12.0894 12.5554 12.0894 12.7241C12.0894 12.8928 12.1564 13.0547 12.2757 13.174C12.395 13.2933 12.5568 13.3603 12.7256 13.3603V27.3573H12.0894C11.9206 27.3573 11.7588 27.4244 11.6395 27.5437C11.5202 27.663 11.4531 27.8248 11.4531 27.9936C11.4531 28.1623 11.5202 28.3241 11.6395 28.4435C11.7588 28.5628 11.9206 28.6298 12.0894 28.6298H22.9052V13.3603C23.074 13.3603 23.2358 13.2933 23.3551 13.174C23.4744 13.0547 23.5415 12.8928 23.5415 12.7241C23.5415 12.5554 23.4744 12.3935 23.3551 12.2742C23.2358 12.1549 23.074 12.0879 22.9052 12.0879H12.7256ZM15.9067 26.7211V24.8124C15.9067 24.6437 15.9738 24.4819 16.0931 24.3625C16.2124 24.2432 16.3742 24.1762 16.543 24.1762H19.0879C19.2566 24.1762 19.4184 24.2432 19.5377 24.3625C19.6571 24.4819 19.7241 24.6437 19.7241 24.8124V26.7211C19.7241 26.8899 19.6571 27.0517 19.5377 27.171C19.4184 27.2903 19.2566 27.3573 19.0879 27.3573H16.543C16.3742 27.3573 16.2124 27.2903 16.0931 27.171C15.9738 27.0517 15.9067 26.8899 15.9067 26.7211ZM15.2705 15.9052C15.2705 15.7365 15.3375 15.5747 15.4568 15.4553C15.5762 15.336 15.738 15.269 15.9067 15.269H16.543C16.7117 15.269 16.8735 15.336 16.9928 15.4553C17.1121 15.5747 17.1792 15.7365 17.1792 15.9052C17.1792 16.074 17.1121 16.2358 16.9928 16.3551C16.8735 16.4744 16.7117 16.5415 16.543 16.5415H15.9067C15.738 16.5415 15.5762 16.4744 15.4568 16.3551C15.3375 16.2358 15.2705 16.074 15.2705 15.9052ZM15.9067 17.8139C15.738 17.8139 15.5762 17.8809 15.4568 18.0003C15.3375 18.1196 15.2705 18.2814 15.2705 18.4501C15.2705 18.6189 15.3375 18.7807 15.4568 18.9C15.5762 19.0193 15.738 19.0864 15.9067 19.0864H16.543C16.7117 19.0864 16.8735 19.0193 16.9928 18.9C17.1121 18.7807 17.1792 18.6189 17.1792 18.4501C17.1792 18.2814 17.1121 18.1196 16.9928 18.0003C16.8735 17.8809 16.7117 17.8139 16.543 17.8139H15.9067ZM15.2705 20.9951C15.2705 20.8263 15.3375 20.6645 15.4568 20.5452C15.5762 20.4259 15.738 20.3588 15.9067 20.3588H16.543C16.7117 20.3588 16.8735 20.4259 16.9928 20.5452C17.1121 20.6645 17.1792 20.8263 17.1792 20.9951C17.1792 21.1638 17.1121 21.3256 16.9928 21.4449C16.8735 21.5643 16.7117 21.6313 16.543 21.6313H15.9067C15.738 21.6313 15.5762 21.5643 15.4568 21.4449C15.3375 21.3256 15.2705 21.1638 15.2705 20.9951ZM19.0879 15.269C18.9191 15.269 18.7573 15.336 18.638 15.4553C18.5187 15.5747 18.4516 15.7365 18.4516 15.9052C18.4516 16.074 18.5187 16.2358 18.638 16.3551C18.7573 16.4744 18.9191 16.5415 19.0879 16.5415H19.7241C19.8928 16.5415 20.0547 16.4744 20.174 16.3551C20.2933 16.2358 20.3603 16.074 20.3603 15.9052C20.3603 15.7365 20.2933 15.5747 20.174 15.4553C20.0547 15.336 19.8928 15.269 19.7241 15.269H19.0879ZM18.4516 18.4501C18.4516 18.2814 18.5187 18.1196 18.638 18.0003C18.7573 17.8809 18.9191 17.8139 19.0879 17.8139H19.7241C19.8928 17.8139 20.0547 17.8809 20.174 18.0003C20.2933 18.1196 20.3603 18.2814 20.3603 18.4501C20.3603 18.6189 20.2933 18.7807 20.174 18.9C20.0547 19.0193 19.8928 19.0864 19.7241 19.0864H19.0879C18.9191 19.0864 18.7573 19.0193 18.638 18.9C18.5187 18.7807 18.4516 18.6189 18.4516 18.4501ZM19.0879 20.3588C18.9191 20.3588 18.7573 20.4259 18.638 20.5452C18.5187 20.6645 18.4516 20.8263 18.4516 20.9951C18.4516 21.1638 18.5187 21.3256 18.638 21.4449C18.7573 21.5643 18.9191 21.6313 19.0879 21.6313H19.7241C19.8928 21.6313 20.0547 21.5643 20.174 21.4449C20.2933 21.3256 20.3603 21.1638 20.3603 20.9951C20.3603 20.8263 20.2933 20.6645 20.174 20.5452C20.0547 20.4259 19.8928 20.3588 19.7241 20.3588H19.0879ZM24.1777 15.9052V28.6298H28.6313C28.8 28.6298 28.9619 28.5628 29.0812 28.4435C29.2005 28.3241 29.2675 28.1623 29.2675 27.9936C29.2675 27.8248 29.2005 27.663 29.0812 27.5437C28.9619 27.4244 28.8 27.3573 28.6313 27.3573H27.9951V17.1777C28.1638 17.1777 28.3256 17.1107 28.4449 16.9913C28.5643 16.872 28.6313 16.7102 28.6313 16.5415C28.6313 16.3727 28.5643 16.2109 28.4449 16.0916C28.3256 15.9723 28.1638 15.9052 27.9951 15.9052H24.1777ZM25.4502 19.7226C25.4502 19.5539 25.5172 19.392 25.6365 19.2727C25.7558 19.1534 25.9176 19.0864 26.0864 19.0864H26.0932C26.2619 19.0864 26.4237 19.1534 26.543 19.2727C26.6624 19.392 26.7294 19.5539 26.7294 19.7226V19.7294C26.7294 19.8981 26.6624 20.06 26.543 20.1793C26.4237 20.2986 26.2619 20.3656 26.0932 20.3656H26.0864C25.9176 20.3656 25.7558 20.2986 25.6365 20.1793C25.5172 20.06 25.4502 19.8981 25.4502 19.7294V19.7226ZM26.0864 21.6313C25.9176 21.6313 25.7558 21.6983 25.6365 21.8176C25.5172 21.9369 25.4502 22.0988 25.4502 22.2675V22.2743C25.4502 22.6255 25.7352 22.9105 26.0864 22.9105H26.0932C26.2619 22.9105 26.4237 22.8435 26.543 22.7242C26.6624 22.6049 26.7294 22.443 26.7294 22.2743V22.2675C26.7294 22.0988 26.6624 21.9369 26.543 21.8176C26.4237 21.6983 26.2619 21.6313 26.0932 21.6313H26.0864ZM25.4502 24.8124C25.4502 24.6437 25.5172 24.4819 25.6365 24.3625C25.7558 24.2432 25.9176 24.1762 26.0864 24.1762H26.0932C26.2619 24.1762 26.4237 24.2432 26.543 24.3625C26.6624 24.4819 26.7294 24.6437 26.7294 24.8124V24.8192C26.7294 24.988 26.6624 25.1498 26.543 25.2691C26.4237 25.3884 26.2619 25.4554 26.0932 25.4554H26.0864C25.9176 25.4554 25.7558 25.3884 25.6365 25.2691C25.5172 25.1498 25.4502 24.988 25.4502 24.8192V24.8124Z" fill="white"/>
</svg>
