<svg width="40" height="20" viewBox="0 0 40 20" fill="none" xmlns="http://www.w3.org/2000/svg">
<path d="M20.7949 17.1873C20.7949 17.2513 20.8466 17.3029 20.9105 17.3029H31.3348C31.3986 17.3029 31.4503 17.2513 31.4503 17.1873V14.7669C31.4503 14.7031 31.3986 14.6514 31.3348 14.6514H20.9105C20.8466 14.6514 20.7949 14.7031 20.7949 14.7669V17.1873Z" fill="#878787"/>
<path d="M0.544922 13.5684C0.544922 13.6322 0.596547 13.6839 0.660474 13.6839H30.361C30.4248 13.6839 30.4765 13.6322 30.4765 13.5684V0.279617C30.4765 0.215762 30.4248 0.164062 30.361 0.164062H0.660547C0.59662 0.164062 0.544995 0.215835 0.544995 0.279617L0.544922 13.5684Z" fill="#C7D3D2"/>
<path d="M1.68945 1V12.5701" stroke="#DAE5E4" stroke-width="2" stroke-miterlimit="10" stroke-linecap="round" stroke-linejoin="round"/>
<path d="M3.38281 1V12.5701" stroke="#DAE5E4" stroke-width="2" stroke-miterlimit="10" stroke-linecap="round" stroke-linejoin="round"/>
<path d="M5.07031 1V12.5701" stroke="#DAE5E4" stroke-width="2" stroke-miterlimit="10" stroke-linecap="round" stroke-linejoin="round"/>
<path d="M6.75195 1V12.5701" stroke="#DAE5E4" stroke-width="2" stroke-miterlimit="10" stroke-linecap="round" stroke-linejoin="round"/>
<path d="M8.44727 1V12.5701" stroke="#DAE5E4" stroke-width="2" stroke-miterlimit="10" stroke-linecap="round" stroke-linejoin="round"/>
<path d="M10.1309 1V12.5701" stroke="#DAE5E4" stroke-width="2" stroke-miterlimit="10" stroke-linecap="round" stroke-linejoin="round"/>
<path d="M11.8164 1V12.5701" stroke="#DAE5E4" stroke-width="2" stroke-miterlimit="10" stroke-linecap="round" stroke-linejoin="round"/>
<path d="M13.502 1V12.5701" stroke="#DAE5E4" stroke-width="2" stroke-miterlimit="10" stroke-linecap="round" stroke-linejoin="round"/>
<path d="M15.1855 1V12.5701" stroke="#DAE5E4" stroke-width="2" stroke-miterlimit="10" stroke-linecap="round" stroke-linejoin="round"/>
<path d="M16.8711 1V12.5701" stroke="#DAE5E4" stroke-width="2" stroke-miterlimit="10" stroke-linecap="round" stroke-linejoin="round"/>
<path d="M18.5645 1V12.5701" stroke="#DAE5E4" stroke-width="2" stroke-miterlimit="10" stroke-linecap="round" stroke-linejoin="round"/>
<path d="M20.2559 1V12.5701" stroke="#DAE5E4" stroke-width="2" stroke-miterlimit="10" stroke-linecap="round" stroke-linejoin="round"/>
<path d="M21.9434 1V12.5701" stroke="#DAE5E4" stroke-width="2" stroke-miterlimit="10" stroke-linecap="round" stroke-linejoin="round"/>
<path d="M23.627 1V12.5701" stroke="#DAE5E4" stroke-width="2" stroke-miterlimit="10" stroke-linecap="round" stroke-linejoin="round"/>
<path d="M25.3145 1V12.5701" stroke="#DAE5E4" stroke-width="2" stroke-miterlimit="10" stroke-linecap="round" stroke-linejoin="round"/>
<path d="M27.0039 1V12.5701" stroke="#DAE5E4" stroke-width="2" stroke-miterlimit="10" stroke-linecap="round" stroke-linejoin="round"/>
<path d="M28.6875 1V12.5701" stroke="#DAE5E4" stroke-width="2" stroke-miterlimit="10" stroke-linecap="round" stroke-linejoin="round"/>
<path opacity="0.4" d="M0.544922 13.5684C0.544922 13.6322 0.596547 13.6839 0.660474 13.6839H30.361C30.4248 13.6839 30.4765 13.6322 30.4765 13.5684V0.279617C30.4765 0.215762 30.4248 0.164062 30.361 0.164062L0.544922 13.5684Z" fill="#C7D3D2"/>
<path d="M1.26953 17.0177C1.26953 17.0817 1.32123 17.1334 1.38509 17.1334H3.88919C3.95312 17.1334 4.00475 17.0817 4.00475 17.0177V15.0433C4.00475 14.9795 3.95312 14.9277 3.88919 14.9277H1.38509C1.32123 14.9277 1.26953 14.9795 1.26953 15.0433V17.0177Z" fill="#5D595D"/>
<path d="M1.25586 17.073C1.25586 17.137 1.30756 17.1887 1.37141 17.1887H1.56408C1.62793 17.1887 1.67963 17.137 1.67963 17.073V14.4536C1.67963 14.3897 1.62793 14.3379 1.56408 14.3379H1.37141C1.30756 14.3379 1.25586 14.3897 1.25586 14.4536V17.073Z" fill="#342F35"/>
<path d="M11.4805 16.7877C11.4805 16.8516 11.5322 16.9032 11.596 16.9032H14.2156C14.2795 16.9032 14.3312 16.8516 14.3312 16.7877V15.4007C14.3312 15.3369 14.2795 15.2852 14.2156 15.2852H11.596C11.5322 15.2852 11.4805 15.3369 11.4805 15.4007V16.7877Z" fill="#342F35"/>
<path d="M0 13.8215C0 13.8854 0.0516986 13.9371 0.115553 13.9371H30.656C30.7198 13.9371 30.7716 13.8854 30.7716 13.8215V13.5472C30.7716 13.4833 30.7198 13.4316 30.656 13.4316H0.115553C0.0516986 13.4316 0 13.4833 0 13.5472V13.8215Z" fill="#342F35"/>
<path d="M31.8145 17.2579L36.7728 17.7746L38.3899 12.3274H30.4727L31.8145 17.2579Z" fill="#342F35"/>
<path d="M39.4934 17.7724C38.839 17.7724 36.7033 17.7724 36.7033 17.7724C36.7033 17.7724 37.1512 13.7767 34.2922 13.7767C31.4332 13.7767 31.8121 17.2556 31.8121 17.2556H29.7109C29.7109 17.2556 29.7109 5.7508 29.7109 3.95979C29.7109 3.51207 34.12 3.7877 34.6022 4.92435C34.6022 4.92435 36.9104 5.06085 37.3234 5.19991C38.1511 5.47869 39.3967 9.72278 39.6189 11.3305C39.8215 12.7961 39.9068 17.7724 39.4934 17.7724Z" fill="#EF433A"/>
<path d="M39.4934 17.7736C38.839 17.7736 36.7033 17.7736 36.7033 17.7736C36.7033 17.7736 37.1512 13.7779 34.2922 13.7779C31.4332 13.7779 31.8121 17.2568 31.8121 17.2568H29.7109C29.7109 17.2568 29.7109 5.75196 29.7109 3.96094L39.4934 17.7736Z" fill="#DB4233"/>
<path d="M29.7109 3.95979C29.7109 3.51207 34.12 3.7877 34.6022 4.92435H29.7109C29.7109 4.49736 29.7109 4.16453 29.7109 3.95979Z" fill="#EF433A"/>
<path d="M36.7024 14.8841C36.7024 14.4983 36.1686 13.3891 34.9622 13.3891C34.9383 13.3891 34.9188 13.3696 34.9188 13.3457L34.9062 9.26399C34.9062 9.25037 34.9126 9.2377 34.9233 9.2295C34.9342 9.22122 34.9483 9.2188 34.9612 9.22217L38.3603 10.1686C38.379 10.1737 38.392 10.1909 38.392 10.2103V14.884C38.392 14.9079 38.3726 14.9274 38.3486 14.9274H36.7457C36.7218 14.9275 36.7024 14.908 36.7024 14.8841ZM38.3054 10.2433L34.9931 9.32103L35.0057 13.303C36.2 13.332 36.7509 14.3964 36.7872 14.8408H38.3054V10.2433Z" fill="#A81A13"/>
<path d="M29.8988 4.97049H34.4475C34.4714 4.97049 34.4909 4.95109 34.4909 4.92714C34.4909 4.90319 34.4714 4.88379 34.4475 4.88379H29.8988C29.8749 4.88379 29.8555 4.90319 29.8555 4.92714C29.8555 4.95109 29.8749 4.97049 29.8988 4.97049Z" fill="#A81A13"/>
<path d="M37.4676 7.07825C37.5658 7.10469 38.4434 10.0373 38.4434 10.211C38.4434 10.3848 34.8509 9.53499 34.8509 9.47707C34.8509 9.41914 34.7919 7.33953 34.8328 7.22368C34.8735 7.10784 37.3247 7.03959 37.4676 7.07825Z" fill="#4EBBE5"/>
<path opacity="0.5" d="M36.4761 7.07893L34.8477 9.31796C34.8499 9.40935 34.8513 9.46712 34.8513 9.47613C34.8513 9.48485 34.933 9.51157 35.0712 9.54995L36.8755 7.06934C36.752 7.07139 36.6169 7.07468 36.4761 7.07893Z" fill="#BDECFE"/>
<path opacity="0.5" d="M36.5762 9.91461C36.8861 9.98337 37.1989 10.0495 37.4778 10.1037L38.1658 9.15757C38.0704 8.83288 37.962 8.47574 37.8593 8.15039L36.5762 9.91461Z" fill="#BDECFE"/>
<path d="M35.1769 9.22012C35.0339 8.9874 34.9486 7.74208 34.9172 7.18848C34.8675 7.19931 34.8369 7.21066 34.8328 7.22253C34.7919 7.33837 34.8509 9.41791 34.8509 9.47591C34.8509 9.53383 38.4434 10.3836 38.4434 10.2099C38.4434 10.193 38.4352 10.15 38.4201 10.0866C37.852 9.97847 35.3408 9.48719 35.1769 9.22012Z" fill="#342F35"/>
<path d="M34.2663 7.26487C34.3235 7.32141 34.354 9.1877 34.2575 9.26496C34.1609 9.34222 33.1374 9.14428 32.9872 9.10166C32.8944 9.07523 32.2996 7.46889 32.3575 7.35304C32.4155 7.23712 34.1615 7.16104 34.2663 7.26487Z" fill="#4EBBE5"/>
<path opacity="0.5" d="M34.2669 7.26487C34.2273 7.22555 33.9534 7.21207 33.6248 7.21669L32.7012 8.48661C32.828 8.81585 32.9499 9.09089 32.9879 9.10158C33.027 9.11272 33.1256 9.13432 33.2513 9.15892L34.3085 7.70534C34.2987 7.4609 34.2841 7.28171 34.2669 7.26487Z" fill="#BDECFE"/>
<path d="M33.0954 8.86001C32.8712 8.60518 32.5367 7.69165 32.4074 7.32324C32.3803 7.3324 32.3625 7.34184 32.3575 7.35173C32.2996 7.46758 32.8943 9.07391 32.9872 9.10035C33.1374 9.14297 34.1609 9.3409 34.2575 9.26365C34.2693 9.2542 34.2793 9.21759 34.2874 9.16113C33.9571 9.14956 33.3037 9.09698 33.0954 8.86001Z" fill="#342F35"/>
<path d="M37.8312 7.07791C37.8561 7.01537 38.1929 7.01127 38.4286 7.0161C38.8485 8.09563 39.2358 9.44296 39.4592 10.4563C39.2642 10.4277 38.9308 10.3686 38.8501 10.2879C38.7343 10.1721 37.7926 7.17442 37.8312 7.07791Z" fill="#4EBBE5"/>
<path opacity="0.5" d="M38.5138 7.24512L38.041 7.89517C38.1317 8.20009 38.2417 8.55525 38.3513 8.89722L38.8474 8.21503C38.7413 7.88286 38.6292 7.55531 38.5138 7.24512Z" fill="#BDECFE"/>
<path d="M39.079 10.0541C38.904 9.83153 38.2513 8.00097 37.9149 7.03809C37.8693 7.04753 37.8381 7.06013 37.8312 7.07741C37.7926 7.17393 38.7343 10.1716 38.8501 10.2874C38.9309 10.3681 39.2642 10.4272 39.4592 10.4558C39.4426 10.3806 39.4248 10.3028 39.4064 10.2241C39.2349 10.1598 39.1161 10.1013 39.079 10.0541Z" fill="#342F35"/>
<path d="M35.2695 11.8206C35.2695 11.8845 35.3212 11.9361 35.3851 11.9361H35.8595C35.9233 11.9361 35.9751 11.8845 35.9751 11.8206V11.7493C35.9751 11.6854 35.9233 11.6338 35.8595 11.6338H35.3851C35.3212 11.6338 35.2695 11.6854 35.2695 11.7493V11.8206Z" fill="#342F35"/>
<path d="M39.291 15.6894C39.291 15.7534 39.3427 15.805 39.4066 15.805H39.8558C39.9196 15.805 39.9714 15.7534 39.9714 15.6894V13.6527C39.9714 13.5887 39.9196 13.5371 39.8558 13.5371H39.4066C39.3427 13.5371 39.291 13.5887 39.291 13.6527V15.6894Z" fill="#FFC001"/>
<path d="M39.4066 13.5371H39.4478V15.4501C39.4478 15.5138 39.4995 15.5656 39.5634 15.5656H39.9714V15.6894C39.9714 15.7534 39.9196 15.805 39.8558 15.805H39.4066C39.3427 15.805 39.291 15.7534 39.291 15.6894V13.6527C39.291 13.5887 39.3427 13.5371 39.4066 13.5371Z" fill="#EE842C"/>
<path d="M21.1914 14.9339C21.1914 14.9978 21.243 15.0496 21.307 15.0496H23.9651C24.0289 15.0496 24.0806 14.9978 24.0806 14.9339V13.7991C24.0806 13.7354 24.0289 13.6836 23.9651 13.6836H21.307C21.243 13.6836 21.1914 13.7354 21.1914 13.7991V14.9339Z" fill="#342F35"/>
<path d="M2.58008 15.4751C2.58008 15.5391 2.63178 15.5907 2.69563 15.5907H14.831C14.8948 15.5907 14.9465 15.5391 14.9465 15.4751V13.7991C14.9465 13.7354 14.8948 13.6836 14.831 13.6836H2.6957C2.63185 13.6836 2.58015 13.7354 2.58015 13.7991V15.4751H2.58008Z" fill="#878787"/>
<path d="M9.86452 17.7735L4.90625 17.2567L5.29077 14.9005L7.44733 13.9365L9.12499 14.512L9.86452 17.7735Z" fill="#342F35"/>
<path d="M9.87552 17.0525C9.67326 17.0525 9.50938 16.8886 9.50938 16.6863C9.50938 15.3289 8.60135 14.3436 7.35032 14.3436C6.27563 14.3436 5.19126 15.0681 5.19126 16.6863C5.19126 16.8886 5.02731 17.0525 4.82512 17.0525C4.62287 17.0525 4.45898 16.8886 4.45898 16.6863C4.45898 14.8758 5.64792 13.6113 7.35032 13.6113C9.02571 13.6113 10.2417 14.9045 10.2417 16.6863C10.2417 16.8886 10.0777 17.0525 9.87552 17.0525Z" fill="#C7D3D2"/>
<g opacity="0.6">
<path d="M4.81947 17.0532C4.97046 17.0532 5.18114 16.9519 5.18561 16.6871C5.18561 15.0687 6.27004 14.3444 7.34474 14.3444C8.59576 14.3444 9.50372 15.3296 9.50372 16.6871C9.50372 16.8893 9.66768 17.0532 9.86986 17.0532C9.86986 17.0532 10.0923 15.2039 8.70605 14.2967C7.31999 13.3897 4.75737 13.8316 4.81947 17.0532Z" fill="#C7D3D2"/>
</g>
<path d="M5.28906 16.4575C5.28906 17.5983 6.21386 18.5232 7.35475 18.5232C8.49557 18.5232 9.42037 17.5983 9.42037 16.4575C9.42037 15.3166 8.49557 14.3918 7.35475 14.3918C6.21386 14.3918 5.28906 15.3166 5.28906 16.4575Z" fill="#5D595D"/>
<path d="M6.48828 16.4575C6.48828 16.9353 6.87573 17.3227 7.35362 17.3227C7.83143 17.3227 8.21888 16.9353 8.21888 16.4575C8.21888 15.9796 7.83143 15.592 7.35362 15.592C6.87573 15.592 6.48828 15.9796 6.48828 16.4575Z" fill="#342F35"/>
<path d="M7.3534 15.592C7.17648 15.592 7.01208 15.6454 6.875 15.7367C6.9382 15.7219 7.00381 15.7134 7.07147 15.7134C7.54928 15.7134 7.93673 16.101 7.93673 16.5788C7.93673 16.8797 7.78295 17.1446 7.54987 17.2997C7.93293 17.2105 8.21873 16.8678 8.21873 16.4575C8.21866 15.9796 7.83121 15.592 7.3534 15.592Z" fill="#484149"/>
<path d="M31.9765 17.2566C31.9765 17.2971 31.9438 17.3298 31.9033 17.3298H20.5713C20.5308 17.3298 20.498 17.2971 20.498 17.2566V17.0019C20.498 16.9614 20.5308 16.9287 20.5713 16.9287H31.9033C31.9438 16.9287 31.9765 16.9614 31.9765 17.0019V17.2566Z" fill="#342F35"/>
<path d="M39.7868 17.7584C39.7868 17.7989 39.754 17.8317 39.7135 17.8317H36.6806C36.6402 17.8317 36.6074 17.7989 36.6074 17.7584V17.4023C36.6074 17.3618 36.6402 17.3291 36.6806 17.3291H39.7135C39.754 17.3291 39.7868 17.3618 39.7868 17.4023V17.7584Z" fill="#5D595D"/>
<path d="M36.7896 17.0056C36.5874 17.0056 36.4234 16.8417 36.4234 16.6395C36.4234 15.282 35.5155 14.2967 34.2645 14.2967C33.1897 14.2967 32.1053 15.0212 32.1053 16.6395C32.1053 16.8417 31.9414 17.0056 31.7392 17.0056C31.537 17.0056 31.373 16.8417 31.373 16.6395C31.373 14.8289 32.5621 13.5645 34.2645 13.5645C35.9398 13.5645 37.1557 14.8577 37.1557 16.6395C37.1557 16.8417 36.9918 17.0056 36.7896 17.0056Z" fill="#C7D3D2"/>
<g opacity="0.6">
<path d="M31.7413 17.0063C31.8923 17.0063 32.1029 16.9051 32.1075 16.6402C32.1075 15.0219 33.1918 14.2975 34.2666 14.2975C35.5176 14.2975 36.4256 15.2828 36.4256 16.6402C36.4256 16.8425 36.5896 17.0063 36.7917 17.0063C36.7917 17.0063 37.0141 15.157 35.6279 14.2498C34.2419 13.3428 31.6792 13.7847 31.7413 17.0063Z" fill="#C7D3D2"/>
</g>
<path d="M36.1704 17.2607C36.6146 16.2099 36.1229 14.9979 35.0721 14.5536C34.0212 14.1094 32.8092 14.6011 32.3649 15.652C31.9207 16.7028 32.4124 17.9148 33.4633 18.359C34.5141 18.8033 35.7261 18.3115 36.1704 17.2607Z" fill="#5D595D"/>
<path d="M33.3984 16.4562C33.3984 16.934 33.7858 17.3215 34.2638 17.3215C34.7417 17.3215 35.129 16.934 35.129 16.4562C35.129 15.9784 34.7417 15.5908 34.2638 15.5908C33.7858 15.5908 33.3984 15.9784 33.3984 16.4562Z" fill="#342F35"/>
<path d="M35.1308 16.4562C35.1308 15.9784 34.7435 15.5908 34.2656 15.5908C34.0886 15.5908 33.9242 15.6441 33.7871 15.7354C33.8503 15.7207 33.9159 15.7122 33.9837 15.7122C34.4615 15.7122 34.8489 16.0998 34.8489 16.5776C34.8489 16.8785 34.6951 17.1434 34.4621 17.2984C34.8451 17.2093 35.1308 16.8665 35.1308 16.4562Z" fill="#484149"/>
<path d="M24.3242 17.3281C24.3242 17.392 24.3759 17.4437 24.4398 17.4437H31.0097C31.0735 17.4437 31.1253 17.392 31.1253 17.3281V14.6282C31.1253 14.5645 31.0735 14.5127 31.0097 14.5127H24.4398C24.3759 14.5127 24.3242 14.5645 24.3242 14.6282V17.3281Z" fill="#5D595D"/>
<path d="M30.12 17.5023C30.12 17.5294 30.098 17.5516 30.0708 17.5516C30.0435 17.5516 30.0215 17.5294 30.0215 17.5023V14.4527C30.0215 14.4255 30.0435 14.4033 30.0708 14.4033C30.098 14.4033 30.12 14.4255 30.12 14.4527V17.5023Z" fill="#342F35"/>
<path d="M25.4306 17.5023C25.4306 17.5294 25.4086 17.5516 25.3813 17.5516C25.3541 17.5516 25.332 17.5294 25.332 17.5023V14.4527C25.332 14.4255 25.3541 14.4033 25.3813 14.4033C25.4086 14.4033 25.4306 14.4255 25.4306 14.4527V17.5023Z" fill="#342F35"/>
</svg>
