<svg width="16" height="16" viewBox="0 0 16 16" fill="none" xmlns="http://www.w3.org/2000/svg">
<path d="M4 14.6667C5.10457 14.6667 6 13.7713 6 12.6667C6 11.5621 5.10457 10.6667 4 10.6667C2.89543 10.6667 2 11.5621 2 12.6667C2 13.7713 2.89543 14.6667 4 14.6667Z" stroke="#757575" stroke-linecap="round" stroke-linejoin="round"/>
<path d="M6 12.6666H11.6667C12.2855 12.6666 12.879 12.4208 13.3166 11.9832C13.7542 11.5456 14 10.9522 14 10.3333C14 9.71448 13.7542 9.12098 13.3166 8.6834C12.879 8.24581 12.2855 7.99998 11.6667 7.99998H4.33333C3.71449 7.99998 3.121 7.75415 2.68342 7.31656C2.24583 6.87898 2 6.28549 2 5.66665C2 5.04781 2.24583 4.45432 2.68342 4.01673C3.121 3.57915 3.71449 3.33331 4.33333 3.33331H10" stroke="#757575" stroke-linecap="round" stroke-linejoin="round"/>
<path d="M12 5.33331C13.1046 5.33331 14 4.43788 14 3.33331C14 2.22874 13.1046 1.33331 12 1.33331C10.8954 1.33331 10 2.22874 10 3.33331C10 4.43788 10.8954 5.33331 12 5.33331Z" stroke="#757575" stroke-linecap="round" stroke-linejoin="round"/>
</svg>
