<svg width="16" height="16" viewBox="0 0 16 16" fill="none" xmlns="http://www.w3.org/2000/svg">
<g clip-path="url(#clip0_415_7167)">
<path d="M14.1147 4.54126C14.4671 4.18888 14.6652 3.71091 14.6652 3.2125C14.6653 2.71409 14.4674 2.23607 14.115 1.8836C13.7626 1.53112 13.2846 1.33307 12.7862 1.33301C12.2878 1.33295 11.8098 1.53088 11.4573 1.88326L2.55999 10.7826C2.4052 10.9369 2.29073 11.127 2.22665 11.3359L1.34599 14.2373C1.32876 14.2949 1.32746 14.3562 1.34222 14.4145C1.35699 14.4728 1.38727 14.5261 1.42985 14.5686C1.47244 14.6111 1.52573 14.6413 1.58409 14.656C1.64245 14.6707 1.70369 14.6693 1.76132 14.6519L4.66332 13.7719C4.8721 13.7084 5.0621 13.5947 5.21665 13.4406L14.1147 4.54126Z" stroke="#C8202F" stroke-width="1.5" stroke-linecap="round" stroke-linejoin="round"/>
<path d="M10 3.33301L12.6667 5.99967" stroke="#C8202F" stroke-width="1.5" stroke-linecap="round" stroke-linejoin="round"/>
</g>
<defs>
<clipPath id="clip0_415_7167">
<rect width="16" height="16" fill="white"/>
</clipPath>
</defs>
</svg>
