<svg width="54" height="54" viewBox="0 0 54 54" fill="none" xmlns="http://www.w3.org/2000/svg">
<g filter="url(#filter0_d_415_6988)">
<path d="M7 23C7 11.9543 15.9543 3 27 3C38.0457 3 47 11.9543 47 23C47 34.0457 38.0457 43 27 43C15.9543 43 7 34.0457 7 23Z" fill="white" shape-rendering="crispEdges"/>
<path d="M7 23C7 11.9543 15.9543 3 27 3C38.0457 3 47 11.9543 47 23C47 34.0457 38.0457 43 27 43C15.9543 43 7 34.0457 7 23Z" fill="url(#paint0_linear_415_6988)" fill-opacity="0.12" shape-rendering="crispEdges"/>
<path d="M27 3.5C37.7696 3.5 46.5 12.2304 46.5 23C46.5 33.7696 37.7696 42.5 27 42.5C16.2304 42.5 7.5 33.7696 7.5 23C7.5 12.2304 16.2304 3.5 27 3.5Z" stroke="url(#paint1_linear_415_6988)" stroke-opacity="0.12" shape-rendering="crispEdges"/>
<path d="M37 24.25H17C16.3167 24.25 15.75 23.6833 15.75 23C15.75 22.3167 16.3167 21.75 17 21.75H37C37.6833 21.75 38.25 22.3167 38.25 23C38.25 23.6833 37.6833 24.25 37 24.25Z" fill="white"/>
<path d="M29.25 16.25H33.75V20.75" stroke="#C8202F" stroke-width="1.5" stroke-linecap="round" stroke-linejoin="round"/>
<path d="M33.75 16.25L28.5 21.5" stroke="#C8202F" stroke-width="1.5" stroke-linecap="round" stroke-linejoin="round"/>
<path d="M20.25 29.75L25.5 24.5" stroke="#C8202F" stroke-width="1.5" stroke-linecap="round" stroke-linejoin="round"/>
<path d="M24.75 29.75H20.25V25.25" stroke="#C8202F" stroke-width="1.5" stroke-linecap="round" stroke-linejoin="round"/>
</g>
<defs>
<filter id="filter0_d_415_6988" x="0" y="0" width="54" height="54" filterUnits="userSpaceOnUse" color-interpolation-filters="sRGB">
<feFlood flood-opacity="0" result="BackgroundImageFix"/>
<feColorMatrix in="SourceAlpha" type="matrix" values="0 0 0 0 0 0 0 0 0 0 0 0 0 0 0 0 0 0 127 0" result="hardAlpha"/>
<feOffset dy="4"/>
<feGaussianBlur stdDeviation="3.5"/>
<feComposite in2="hardAlpha" operator="out"/>
<feColorMatrix type="matrix" values="0 0 0 0 0 0 0 0 0 0 0 0 0 0 0 0 0 0 0.15 0"/>
<feBlend mode="normal" in2="BackgroundImageFix" result="effect1_dropShadow_415_6988"/>
<feBlend mode="normal" in="SourceGraphic" in2="effect1_dropShadow_415_6988" result="shape"/>
</filter>
<linearGradient id="paint0_linear_415_6988" x1="27" y1="3" x2="27" y2="43" gradientUnits="userSpaceOnUse">
<stop stop-color="white"/>
<stop offset="1" stop-color="white" stop-opacity="0"/>
</linearGradient>
<linearGradient id="paint1_linear_415_6988" x1="27" y1="3" x2="27" y2="43" gradientUnits="userSpaceOnUse">
<stop stop-color="white"/>
<stop offset="1" stop-color="white" stop-opacity="0"/>
</linearGradient>
</defs>
</svg>
