<svg width="58" height="38" viewBox="0 0 58 38" fill="none" xmlns="http://www.w3.org/2000/svg">
<path d="M28.4699 3.84099C28.6106 3.70054 28.8012 3.62165 28.9999 3.62165C29.1987 3.62165 29.3893 3.70054 29.5299 3.84099L38.2199 12.531C38.2892 12.6026 38.3719 12.6597 38.4635 12.699C38.555 12.7382 38.6534 12.7589 38.753 12.7597C38.8526 12.7605 38.9513 12.7415 39.0435 12.7037C39.1356 12.666 39.2194 12.6102 39.2897 12.5398C39.3601 12.4693 39.4158 12.3856 39.4534 12.2934C39.4911 12.2012 39.51 12.1024 39.5091 12.0028C39.5082 11.9032 39.4875 11.8048 39.4481 11.7134C39.4088 11.6219 39.3516 11.5391 39.2799 11.47L30.5909 2.77999C30.382 2.57106 30.134 2.40532 29.861 2.29225C29.588 2.17917 29.2954 2.12097 28.9999 2.12097C28.7045 2.12097 28.4119 2.17917 28.1389 2.29225C27.8659 2.40532 27.6179 2.57106 27.4089 2.77999L18.7189 11.47C18.6473 11.5392 18.5902 11.622 18.551 11.7135C18.5117 11.805 18.4911 11.9035 18.4903 12.003C18.4894 12.1026 18.5085 12.2014 18.5462 12.2935C18.584 12.3857 18.6397 12.4694 18.7102 12.5398C18.7806 12.6102 18.8644 12.6658 18.9566 12.7035C19.0488 12.7412 19.1475 12.7601 19.2471 12.7592C19.3467 12.7583 19.4451 12.7375 19.5366 12.6982C19.6281 12.6588 19.7108 12.6017 19.7799 12.53L28.4699 3.84099Z" fill="#C8202F"/>
<path d="M29 5.43201L37.159 13.591C37.189 13.621 37.219 13.649 37.25 13.677V19.875C37.25 20.91 36.41 21.75 35.375 21.75H32C31.8011 21.75 31.6103 21.671 31.4697 21.5303C31.329 21.3897 31.25 21.1989 31.25 21V16.5C31.25 16.3011 31.171 16.1103 31.0303 15.9697C30.8897 15.829 30.6989 15.75 30.5 15.75H27.5C27.3011 15.75 27.1103 15.829 26.9697 15.9697C26.829 16.1103 26.75 16.3011 26.75 16.5V21C26.75 21.1989 26.671 21.3897 26.5303 21.5303C26.3897 21.671 26.1989 21.75 26 21.75H22.625C22.1277 21.75 21.6508 21.5525 21.2992 21.2008C20.9475 20.8492 20.75 20.3723 20.75 19.875V13.677C20.7811 13.6492 20.8115 13.6205 20.841 13.591L29 5.43201Z" fill="#C8202F"/>
<path d="M20.7795 36V29H21.9395V36H20.7795ZM16.0995 36V29H17.2595V36H16.0995ZM17.0095 32.94V31.88H21.2495V32.94H17.0095ZM25.6895 36.12C25.1895 36.12 24.7429 36.01 24.3495 35.79C23.9629 35.5633 23.6595 35.2533 23.4395 34.86C23.2195 34.4667 23.1095 34.0133 23.1095 33.5C23.1095 32.9867 23.2162 32.5333 23.4295 32.14C23.6495 31.7467 23.9529 31.44 24.3395 31.22C24.7262 30.9933 25.1695 30.88 25.6695 30.88C26.1695 30.88 26.6129 30.9933 26.9995 31.22C27.3862 31.44 27.6862 31.7467 27.8995 32.14C28.1195 32.5333 28.2295 32.9867 28.2295 33.5C28.2295 34.0133 28.1229 34.4667 27.9095 34.86C27.6962 35.2533 27.3962 35.5633 27.0095 35.79C26.6229 36.01 26.1829 36.12 25.6895 36.12ZM25.6895 35.09C25.9629 35.09 26.2062 35.0233 26.4195 34.89C26.6329 34.75 26.7995 34.5633 26.9195 34.33C27.0395 34.09 27.0995 33.8133 27.0995 33.5C27.0995 33.1867 27.0362 32.9133 26.9095 32.68C26.7895 32.44 26.6229 32.2533 26.4095 32.12C26.1962 31.98 25.9495 31.91 25.6695 31.91C25.3895 31.91 25.1429 31.9767 24.9295 32.11C24.7162 32.2433 24.5495 32.43 24.4295 32.67C24.3095 32.91 24.2495 33.1867 24.2495 33.5C24.2495 33.8133 24.3095 34.09 24.4295 34.33C24.5562 34.5633 24.7262 34.75 24.9395 34.89C25.1595 35.0233 25.4095 35.09 25.6895 35.09ZM29.2001 36V31H30.2501L30.3001 31.67C30.4534 31.41 30.6501 31.2133 30.8901 31.08C31.1301 30.9467 31.4034 30.88 31.7101 30.88C32.1101 30.88 32.4501 30.97 32.7301 31.15C33.0101 31.33 33.2134 31.6033 33.3401 31.97C33.4867 31.6167 33.6934 31.3467 33.9601 31.16C34.2267 30.9733 34.5401 30.88 34.9001 30.88C35.4801 30.88 35.9267 31.0667 36.2401 31.44C36.5534 31.8067 36.7067 32.3733 36.7001 33.14V36H35.5901V33.44C35.5901 33.04 35.5467 32.7333 35.4601 32.52C35.3734 32.3 35.2567 32.1467 35.1101 32.06C34.9634 31.9733 34.7934 31.93 34.6001 31.93C34.2534 31.9233 33.9834 32.0467 33.7901 32.3C33.6034 32.5533 33.5101 32.9167 33.5101 33.39V36H32.3901V33.44C32.3901 33.04 32.3467 32.7333 32.2601 32.52C32.1801 32.3 32.0667 32.1467 31.9201 32.06C31.7734 31.9733 31.6034 31.93 31.4101 31.93C31.0634 31.9233 30.7934 32.0467 30.6001 32.3C30.4134 32.5533 30.3201 32.9167 30.3201 33.39V36H29.2001ZM40.0727 36.12C39.586 36.12 39.1527 36.01 38.7727 35.79C38.3993 35.5633 38.1027 35.2533 37.8827 34.86C37.6693 34.4667 37.5627 34.0133 37.5627 33.5C37.5627 32.9867 37.6727 32.5333 37.8927 32.14C38.1127 31.7467 38.4127 31.44 38.7927 31.22C39.1793 30.9933 39.6193 30.88 40.1127 30.88C40.5593 30.88 40.9627 30.9967 41.3227 31.23C41.6827 31.4567 41.966 31.7867 42.1727 32.22C42.386 32.6533 42.4927 33.17 42.4927 33.77H38.5627L38.7127 33.63C38.7127 33.9367 38.7793 34.2033 38.9127 34.43C39.046 34.65 39.2227 34.82 39.4427 34.94C39.6627 35.06 39.906 35.12 40.1727 35.12C40.4793 35.12 40.7327 35.0533 40.9327 34.92C41.1327 34.78 41.2893 34.6 41.4027 34.38L42.3927 34.8C42.2527 35.0667 42.0727 35.3 41.8527 35.5C41.6393 35.7 41.3827 35.8533 41.0827 35.96C40.7893 36.0667 40.4527 36.12 40.0727 36.12ZM38.7827 33.05L38.6227 32.91H41.4427L41.2927 33.05C41.2927 32.7767 41.2327 32.5533 41.1127 32.38C40.9927 32.2 40.8393 32.0667 40.6527 31.98C40.4727 31.8867 40.2827 31.84 40.0827 31.84C39.8827 31.84 39.6827 31.8867 39.4827 31.98C39.2827 32.0667 39.116 32.2 38.9827 32.38C38.8493 32.5533 38.7827 32.7767 38.7827 33.05Z" fill="#C8202F"/>
</svg>
