<svg width="41" height="41" viewBox="0 0 41 41" fill="none" xmlns="http://www.w3.org/2000/svg">
<circle cx="20.3593" cy="20.3593" r="20.3593" fill="#0F5F66"/>
<path fill-rule="evenodd" clip-rule="evenodd" d="M19.8427 29.2676L19.902 29.3016L19.9258 29.3151C20.02 29.3661 20.1254 29.3927 20.2325 29.3927C20.3395 29.3927 20.4449 29.3661 20.5391 29.3151L20.5629 29.3024L20.6231 29.2676C20.9549 29.0709 21.2786 28.8609 21.5936 28.6382C22.4089 28.0626 23.1706 27.4147 23.8696 26.7023C25.5187 25.0142 27.2314 22.4778 27.2314 19.2144C27.2314 17.3582 26.4941 15.5781 25.1816 14.2657C23.8691 12.9532 22.089 12.2159 20.2329 12.2159C18.3768 12.2159 16.5967 12.9532 15.2842 14.2657C13.9717 15.5781 13.2344 17.3582 13.2344 19.2144C13.2344 22.4769 14.948 25.0142 16.5962 26.7023C17.2949 27.4146 18.0564 28.0625 18.8714 28.6382C19.1866 28.8609 19.5106 29.0709 19.8427 29.2676ZM20.2329 21.7593C20.9078 21.7593 21.5552 21.4912 22.0324 21.0139C22.5097 20.5366 22.7778 19.8893 22.7778 19.2144C22.7778 18.5394 22.5097 17.8921 22.0324 17.4148C21.5552 16.9376 20.9078 16.6694 20.2329 16.6694C19.5579 16.6694 18.9106 16.9376 18.4334 17.4148C17.9561 17.8921 17.688 18.5394 17.688 19.2144C17.688 19.8893 17.9561 20.5366 18.4334 21.0139C18.9106 21.4912 19.5579 21.7593 20.2329 21.7593Z" fill="white"/>
</svg>
