<svg width="19" height="20" viewBox="0 0 19 20" fill="none" xmlns="http://www.w3.org/2000/svg">
<path fill-rule="evenodd" clip-rule="evenodd" d="M9.06193 0C7.27172 0 5.55483 0.711159 4.28896 1.97703C3.02309 3.2429 2.31193 4.95979 2.31193 6.75V7.5C2.31501 9.53919 1.55973 11.5067 0.192928 13.02C0.110847 13.1111 0.0523374 13.2208 0.0225212 13.3398C-0.00729501 13.4587 -0.00750868 13.5831 0.0218987 13.7021C0.0513061 13.8211 0.109438 13.9311 0.191206 14.0224C0.272973 14.1138 0.375884 14.1837 0.490928 14.226C2.03493 14.796 3.65093 15.216 5.32193 15.469C5.28431 15.9831 5.35309 16.4995 5.524 16.9859C5.6949 17.4722 5.96425 17.9181 6.31522 18.2957C6.66619 18.6733 7.09125 18.9745 7.56384 19.1804C8.03643 19.3864 8.54641 19.4927 9.06193 19.4927C9.57744 19.4927 10.0874 19.3864 10.56 19.1804C11.0326 18.9745 11.4577 18.6733 11.8086 18.2957C12.1596 17.9181 12.429 17.4722 12.5999 16.9859C12.7708 16.4995 12.8396 15.9831 12.8019 15.469C14.4499 15.2192 16.0683 14.8023 17.6319 14.225C17.7468 14.1826 17.8495 14.1127 17.9312 14.0215C18.0128 13.9302 18.0709 13.8203 18.1002 13.7015C18.1296 13.5826 18.1295 13.4584 18.0998 13.3396C18.0701 13.2208 18.0118 13.1111 17.9299 13.02C16.5635 11.5065 15.8086 9.53906 15.8119 7.5V6.75C15.8119 4.95979 15.1008 3.2429 13.8349 1.97703C12.569 0.711159 10.8521 0 9.06193 0ZM6.81193 15.75C6.81193 15.716 6.81193 15.683 6.81393 15.65C8.30957 15.7848 9.81429 15.7848 11.3099 15.65L11.3119 15.75C11.3119 16.3467 11.0749 16.919 10.6529 17.341C10.231 17.7629 9.65866 18 9.06193 18C8.46519 18 7.8929 17.7629 7.47094 17.341C7.04898 16.919 6.81193 16.3467 6.81193 15.75Z" fill="#C8202F"/>
</svg>
