<svg width="32" height="32" viewBox="0 0 32 32" fill="none" xmlns="http://www.w3.org/2000/svg">
<circle cx="16" cy="16" r="16" fill="#FAEDEE"/>
<path d="M18.25 16.75C18.25 16.1533 18.0129 15.581 17.591 15.159C17.169 14.7371 16.5967 14.5 16 14.5C15.4033 14.5 14.831 14.7371 14.409 15.159C13.9871 15.581 13.75 16.1533 13.75 16.75" stroke="#C8202F" stroke-width="1.5" stroke-linecap="round" stroke-linejoin="round"/>
<path d="M10 21.625V10.375C10 9.87772 10.1975 9.40081 10.5492 9.04917C10.9008 8.69754 11.3777 8.5 11.875 8.5H21.25C21.4489 8.5 21.6397 8.57902 21.7803 8.71967C21.921 8.86032 22 9.05109 22 9.25V22.75C22 22.9489 21.921 23.1397 21.7803 23.2803C21.6397 23.421 21.4489 23.5 21.25 23.5H11.875C11.3777 23.5 10.9008 23.3025 10.5492 22.9508C10.1975 22.5992 10 22.1223 10 21.625ZM10 21.625C10 21.1277 10.1975 20.6508 10.5492 20.2992C10.9008 19.9475 11.3777 19.75 11.875 19.75H22" stroke="#C8202F" stroke-width="1.5" stroke-linecap="round" stroke-linejoin="round"/>
<path d="M16 14.5C16.8284 14.5 17.5 13.8284 17.5 13C17.5 12.1716 16.8284 11.5 16 11.5C15.1716 11.5 14.5 12.1716 14.5 13C14.5 13.8284 15.1716 14.5 16 14.5Z" stroke="#C8202F" stroke-width="1.5" stroke-linecap="round" stroke-linejoin="round"/>
</svg>
