<svg width="16" height="16" viewBox="0 0 16 16" fill="none" xmlns="http://www.w3.org/2000/svg">
<path d="M9.33398 12.0001V4.00008C9.33398 3.64646 9.19351 3.30732 8.94346 3.05727C8.69341 2.80722 8.35427 2.66675 8.00065 2.66675H2.66732C2.3137 2.66675 1.97456 2.80722 1.72451 3.05727C1.47446 3.30732 1.33398 3.64646 1.33398 4.00008V11.3334C1.33398 11.5102 1.40422 11.6798 1.52925 11.8048C1.65427 11.9298 1.82384 12.0001 2.00065 12.0001H3.33398" stroke="#757575" stroke-linecap="round" stroke-linejoin="round"/>
<path d="M10 12H6" stroke="#757575" stroke-linecap="round" stroke-linejoin="round"/>
<path d="M12.6673 11.9999H14.0007C14.1775 11.9999 14.347 11.9297 14.4721 11.8047C14.5971 11.6796 14.6673 11.5101 14.6673 11.3333V8.89992C14.667 8.74863 14.6153 8.60193 14.5207 8.48392L12.2007 5.58392C12.1383 5.50584 12.0592 5.44277 11.9692 5.39938C11.8792 5.356 11.7806 5.33339 11.6807 5.33325H9.33398" stroke="#757575" stroke-linecap="round" stroke-linejoin="round"/>
<path d="M11.3333 13.3334C12.0697 13.3334 12.6667 12.7365 12.6667 12.0001C12.6667 11.2637 12.0697 10.6667 11.3333 10.6667C10.597 10.6667 10 11.2637 10 12.0001C10 12.7365 10.597 13.3334 11.3333 13.3334Z" stroke="#757575" stroke-linecap="round" stroke-linejoin="round"/>
<path d="M4.66732 13.3334C5.4037 13.3334 6.00065 12.7365 6.00065 12.0001C6.00065 11.2637 5.4037 10.6667 4.66732 10.6667C3.93094 10.6667 3.33398 11.2637 3.33398 12.0001C3.33398 12.7365 3.93094 13.3334 4.66732 13.3334Z" stroke="#757575" stroke-linecap="round" stroke-linejoin="round"/>
</svg>
