<svg width="40" height="20" viewBox="0 0 40 20" fill="none" xmlns="http://www.w3.org/2000/svg">
<path d="M20.7969 17.1873C20.7969 17.2513 20.8486 17.3029 20.9124 17.3029H31.3367C31.4006 17.3029 31.4523 17.2513 31.4523 17.1873V14.7669C31.4523 14.7031 31.4006 14.6514 31.3367 14.6514H20.9124C20.8486 14.6514 20.7969 14.7031 20.7969 14.7669V17.1873Z" fill="#878787"/>
<path d="M0.546875 13.5684C0.546875 13.6322 0.5985 13.6839 0.662427 13.6839H30.3629C30.4267 13.6839 30.4785 13.6322 30.4785 13.5684V0.279617C30.4785 0.215762 30.4267 0.164062 30.3629 0.164062H0.6625C0.598573 0.164062 0.546948 0.215835 0.546948 0.279617L0.546875 13.5684Z" fill="#C7D3D2"/>
<path d="M1.69141 1V12.5701" stroke="#DAE5E4" stroke-width="2" stroke-miterlimit="10" stroke-linecap="round" stroke-linejoin="round"/>
<path d="M3.38281 1V12.5701" stroke="#DAE5E4" stroke-width="2" stroke-miterlimit="10" stroke-linecap="round" stroke-linejoin="round"/>
<path d="M5.07031 1V12.5701" stroke="#DAE5E4" stroke-width="2" stroke-miterlimit="10" stroke-linecap="round" stroke-linejoin="round"/>
<path d="M6.75391 1V12.5701" stroke="#DAE5E4" stroke-width="2" stroke-miterlimit="10" stroke-linecap="round" stroke-linejoin="round"/>
<path d="M8.44922 1V12.5701" stroke="#DAE5E4" stroke-width="2" stroke-miterlimit="10" stroke-linecap="round" stroke-linejoin="round"/>
<path d="M10.1328 1V12.5701" stroke="#DAE5E4" stroke-width="2" stroke-miterlimit="10" stroke-linecap="round" stroke-linejoin="round"/>
<path d="M11.8164 1V12.5701" stroke="#DAE5E4" stroke-width="2" stroke-miterlimit="10" stroke-linecap="round" stroke-linejoin="round"/>
<path d="M13.5039 1V12.5701" stroke="#DAE5E4" stroke-width="2" stroke-miterlimit="10" stroke-linecap="round" stroke-linejoin="round"/>
<path d="M15.1875 1V12.5701" stroke="#DAE5E4" stroke-width="2" stroke-miterlimit="10" stroke-linecap="round" stroke-linejoin="round"/>
<path d="M16.875 1V12.5701" stroke="#DAE5E4" stroke-width="2" stroke-miterlimit="10" stroke-linecap="round" stroke-linejoin="round"/>
<path d="M18.5664 1V12.5701" stroke="#DAE5E4" stroke-width="2" stroke-miterlimit="10" stroke-linecap="round" stroke-linejoin="round"/>
<path d="M20.2578 1V12.5701" stroke="#DAE5E4" stroke-width="2" stroke-miterlimit="10" stroke-linecap="round" stroke-linejoin="round"/>
<path d="M21.9453 1V12.5701" stroke="#DAE5E4" stroke-width="2" stroke-miterlimit="10" stroke-linecap="round" stroke-linejoin="round"/>
<path d="M23.6289 1V12.5701" stroke="#DAE5E4" stroke-width="2" stroke-miterlimit="10" stroke-linecap="round" stroke-linejoin="round"/>
<path d="M25.3164 1V12.5701" stroke="#DAE5E4" stroke-width="2" stroke-miterlimit="10" stroke-linecap="round" stroke-linejoin="round"/>
<path d="M27.0078 1V12.5701" stroke="#DAE5E4" stroke-width="2" stroke-miterlimit="10" stroke-linecap="round" stroke-linejoin="round"/>
<path d="M28.6875 1V12.5701" stroke="#DAE5E4" stroke-width="2" stroke-miterlimit="10" stroke-linecap="round" stroke-linejoin="round"/>
<path opacity="0.4" d="M0.546875 13.5684C0.546875 13.6322 0.5985 13.6839 0.662427 13.6839H30.3629C30.4267 13.6839 30.4785 13.6322 30.4785 13.5684V0.279617C30.4785 0.215762 30.4267 0.164062 30.3629 0.164062L0.546875 13.5684Z" fill="#C7D3D2"/>
<path d="M1.26953 17.0177C1.26953 17.0817 1.32123 17.1334 1.38509 17.1334H3.88919C3.95312 17.1334 4.00475 17.0817 4.00475 17.0177V15.0433C4.00475 14.9795 3.95312 14.9277 3.88919 14.9277H1.38509C1.32123 14.9277 1.26953 14.9795 1.26953 15.0433V17.0177Z" fill="#5D595D"/>
<path d="M1.25781 17.073C1.25781 17.137 1.30951 17.1887 1.37337 17.1887H1.56603C1.62988 17.1887 1.68158 17.137 1.68158 17.073V14.4536C1.68158 14.3897 1.62988 14.3379 1.56603 14.3379H1.37337C1.30951 14.3379 1.25781 14.3897 1.25781 14.4536V17.073Z" fill="#342F35"/>
<path d="M11.4805 16.7877C11.4805 16.8516 11.5322 16.9032 11.596 16.9032H14.2156C14.2795 16.9032 14.3312 16.8516 14.3312 16.7877V15.4007C14.3312 15.3369 14.2795 15.2852 14.2156 15.2852H11.596C11.5322 15.2852 11.4805 15.3369 11.4805 15.4007V16.7877Z" fill="#342F35"/>
<path d="M0 13.821C0 13.885 0.0516986 13.9366 0.115553 13.9366H30.656C30.7198 13.9366 30.7716 13.885 30.7716 13.821V13.5467C30.7716 13.4828 30.7198 13.4312 30.656 13.4312H0.115553C0.0516986 13.4312 0 13.4828 0 13.5467V13.821Z" fill="#342F35"/>
<path d="M31.8147 17.2578L36.7731 17.7746L38.3902 12.3273H30.4729L31.8147 17.2578Z" fill="#342F35"/>
<path d="M39.4934 17.7729C38.839 17.7729 36.7033 17.7729 36.7033 17.7729C36.7033 17.7729 37.1512 13.7772 34.2922 13.7772C31.4332 13.7772 31.8121 17.2561 31.8121 17.2561H29.7109C29.7109 17.2561 29.7109 5.75129 29.7109 3.96027C29.7109 3.51256 34.12 3.78819 34.6022 4.92484C34.6022 4.92484 36.9104 5.06134 37.3234 5.2004C38.1511 5.47918 39.3967 9.72327 39.6189 11.331C39.8215 12.7966 39.9068 17.7729 39.4934 17.7729Z" fill="#EF433A"/>
<path d="M39.4934 17.7736C38.839 17.7736 36.7033 17.7736 36.7033 17.7736C36.7033 17.7736 37.1512 13.7779 34.2922 13.7779C31.4332 13.7779 31.8121 17.2568 31.8121 17.2568H29.7109C29.7109 17.2568 29.7109 5.75196 29.7109 3.96094L39.4934 17.7736Z" fill="#DB4233"/>
<path d="M29.7109 3.96027C29.7109 3.51256 34.12 3.78819 34.6022 4.92484H29.7109C29.7109 4.49784 29.7109 4.16502 29.7109 3.96027Z" fill="#EF433A"/>
<path d="M36.7024 14.8846C36.7024 14.4988 36.1686 13.3896 34.9622 13.3896C34.9383 13.3896 34.9188 13.3701 34.9188 13.3462L34.9062 9.26447C34.9062 9.25085 34.9126 9.23819 34.9233 9.22998C34.9342 9.22171 34.9483 9.21929 34.9612 9.22266L38.3603 10.1691C38.379 10.1742 38.392 10.1914 38.392 10.2108V14.8845C38.392 14.9084 38.3726 14.9279 38.3486 14.9279H36.7457C36.7218 14.928 36.7024 14.9085 36.7024 14.8846ZM38.3054 10.2438L34.9931 9.32152L35.0057 13.3035C36.2 13.3325 36.7509 14.3969 36.7872 14.8412H38.3054V10.2438Z" fill="#A81A13"/>
<path d="M29.8988 4.97049H34.4475C34.4714 4.97049 34.4909 4.95109 34.4909 4.92714C34.4909 4.90319 34.4714 4.88379 34.4475 4.88379H29.8988C29.8749 4.88379 29.8555 4.90319 29.8555 4.92714C29.8555 4.95109 29.8749 4.97049 29.8988 4.97049Z" fill="#A81A13"/>
<path d="M37.4656 7.07825C37.5638 7.10469 38.4415 10.0373 38.4415 10.211C38.4415 10.3848 34.8489 9.53499 34.8489 9.47707C34.8489 9.41914 34.79 7.33953 34.8308 7.22368C34.8715 7.10784 37.3227 7.03959 37.4656 7.07825Z" fill="#4EBBE5"/>
<path opacity="0.5" d="M36.4722 7.07893L34.8438 9.31796C34.8459 9.40935 34.8474 9.46712 34.8474 9.47613C34.8474 9.48485 34.9291 9.51157 35.0673 9.54995L36.8716 7.06934C36.748 7.07139 36.613 7.07468 36.4722 7.07893Z" fill="#BDECFE"/>
<path opacity="0.5" d="M36.5742 9.91461C36.8842 9.98337 37.197 10.0495 37.4758 10.1037L38.1639 9.15757C38.0684 8.83288 37.9601 8.47574 37.8573 8.15039L36.5742 9.91461Z" fill="#BDECFE"/>
<path d="M35.1749 9.22012C35.0319 8.9874 34.9467 7.74208 34.9153 7.18848C34.8655 7.19931 34.8349 7.21066 34.8308 7.22253C34.79 7.33837 34.8489 9.41791 34.8489 9.47591C34.8489 9.53383 38.4415 10.3836 38.4415 10.2099C38.4415 10.193 38.4332 10.15 38.4182 10.0866C37.8501 9.97847 35.3389 9.48719 35.1749 9.22012Z" fill="#342F35"/>
<path d="M34.2644 7.26487C34.3215 7.32141 34.3521 9.1877 34.2556 9.26496C34.159 9.34222 33.1355 9.14428 32.9853 9.10166C32.8924 9.07523 32.2976 7.46889 32.3555 7.35304C32.4135 7.23712 34.1596 7.16104 34.2644 7.26487Z" fill="#4EBBE5"/>
<path opacity="0.5" d="M34.265 7.26487C34.2254 7.22555 33.9514 7.21207 33.6228 7.21669L32.6992 8.48661C32.826 8.81585 32.948 9.09089 32.986 9.10158C33.0251 9.11272 33.1236 9.13432 33.2493 9.15892L34.3065 7.70534C34.2968 7.4609 34.2821 7.28171 34.265 7.26487Z" fill="#BDECFE"/>
<path d="M33.0934 8.86001C32.8692 8.60518 32.5348 7.69165 32.4055 7.32324C32.3784 7.3324 32.3605 7.34184 32.3555 7.35173C32.2976 7.46758 32.8924 9.07391 32.9853 9.10035C33.1355 9.14297 34.1589 9.3409 34.2556 9.26365C34.2674 9.2542 34.2773 9.21759 34.2854 9.16113C33.9552 9.14956 33.3018 9.09698 33.0934 8.86001Z" fill="#342F35"/>
<path d="M37.8293 7.07791C37.8542 7.01537 38.191 7.01127 38.4267 7.0161C38.8466 8.09563 39.2339 9.44296 39.4573 10.4563C39.2622 10.4277 38.9289 10.3686 38.8482 10.2879C38.7323 10.1721 37.7907 7.17442 37.8293 7.07791Z" fill="#4EBBE5"/>
<path opacity="0.5" d="M38.5121 7.24503L38.0393 7.89507C38.13 8.2 38.24 8.55515 38.3496 8.89713L38.8457 8.21494C38.7396 7.88277 38.6275 7.55522 38.5121 7.24503Z" fill="#BDECFE"/>
<path d="M39.077 10.0541C38.9021 9.83153 38.2494 8.00097 37.913 7.03809C37.8674 7.04753 37.8362 7.06013 37.8293 7.07741C37.7907 7.17393 38.7323 10.1716 38.8482 10.2874C38.9289 10.3681 39.2622 10.4272 39.4573 10.4558C39.4407 10.3806 39.4229 10.3028 39.4045 10.2241C39.233 10.1598 39.1141 10.1013 39.077 10.0541Z" fill="#342F35"/>
<path d="M35.2698 11.8207C35.2698 11.8846 35.3215 11.9363 35.3853 11.9363H35.8598C35.9236 11.9363 35.9753 11.8846 35.9753 11.8207V11.7495C35.9753 11.6855 35.9236 11.6339 35.8598 11.6339H35.3853C35.3215 11.6339 35.2698 11.6855 35.2698 11.7495V11.8207Z" fill="#342F35"/>
<path d="M39.2891 15.6889C39.2891 15.7529 39.3408 15.8045 39.4046 15.8045H39.8539C39.9177 15.8045 39.9694 15.7529 39.9694 15.6889V13.6522C39.9694 13.5882 39.9177 13.5366 39.8539 13.5366H39.4046C39.3408 13.5366 39.2891 13.5882 39.2891 13.6522V15.6889Z" fill="#FFC001"/>
<path d="M39.4046 13.5366H39.4458V15.4496C39.4458 15.5133 39.4975 15.5651 39.5614 15.5651H39.9694V15.6889C39.9694 15.7529 39.9177 15.8045 39.8539 15.8045H39.4046C39.3408 15.8045 39.2891 15.7529 39.2891 15.6889V13.6522C39.2891 13.5882 39.3408 13.5366 39.4046 13.5366Z" fill="#EE842C"/>
<path d="M21.1912 14.9338C21.1912 14.9977 21.2428 15.0495 21.3067 15.0495H23.9648C24.0287 15.0495 24.0804 14.9977 24.0804 14.9338V13.799C24.0804 13.7353 24.0287 13.6835 23.9648 13.6835H21.3067C21.2428 13.6835 21.1912 13.7353 21.1912 13.799V14.9338Z" fill="#342F35"/>
<path d="M2.58203 15.4751C2.58203 15.5391 2.63373 15.5907 2.69759 15.5907H14.8329C14.8968 15.5907 14.9485 15.5391 14.9485 15.4751V13.7991C14.9485 13.7354 14.8968 13.6836 14.8329 13.6836H2.69766C2.6338 13.6836 2.5821 13.7354 2.5821 13.7991V15.4751H2.58203Z" fill="#878787"/>
<path d="M9.86452 17.7735L4.90625 17.2567L5.29077 14.9005L7.44733 13.9365L9.12499 14.512L9.86452 17.7735Z" fill="#342F35"/>
<path d="M9.87747 17.0525C9.67521 17.0525 9.51133 16.8886 9.51133 16.6863C9.51133 15.3289 8.6033 14.3436 7.35227 14.3436C6.27758 14.3436 5.19322 15.0681 5.19322 16.6863C5.19322 16.8886 5.02926 17.0525 4.82708 17.0525C4.62482 17.0525 4.46094 16.8886 4.46094 16.6863C4.46094 14.8758 5.64987 13.6113 7.35227 13.6113C9.02766 13.6113 10.2436 14.9045 10.2436 16.6863C10.2436 16.8886 10.0797 17.0525 9.87747 17.0525Z" fill="#C7D3D2"/>
<g opacity="0.6">
<path d="M4.82142 17.053C4.97242 17.053 5.18309 16.9517 5.18756 16.6868C5.18756 15.0685 6.272 14.3441 7.34669 14.3441C8.59772 14.3441 9.50567 15.3294 9.50567 16.6868C9.50567 16.8891 9.66963 17.053 9.87181 17.053C9.87181 17.053 10.0942 15.2037 8.708 14.2964C7.32194 13.3894 4.75932 13.8314 4.82142 17.053Z" fill="#C7D3D2"/>
</g>
<path d="M5.28906 16.4572C5.28906 17.598 6.21386 18.5229 7.35475 18.5229C8.49557 18.5229 9.42037 17.598 9.42037 16.4572C9.42037 15.3163 8.49557 14.3915 7.35475 14.3915C6.21386 14.3915 5.28906 15.3163 5.28906 16.4572Z" fill="#5D595D"/>
<path d="M6.48804 16.4576C6.48804 16.9354 6.87549 17.3229 7.35337 17.3229C7.83119 17.3229 8.21864 16.9354 8.21864 16.4576C8.21864 15.9798 7.83119 15.5922 7.35337 15.5922C6.87549 15.5922 6.48804 15.9798 6.48804 16.4576Z" fill="#342F35"/>
<path d="M7.35316 15.5921C7.17624 15.5921 7.01184 15.6454 6.87476 15.7367C6.93795 15.722 7.00356 15.7135 7.07123 15.7135C7.54904 15.7135 7.93649 16.1011 7.93649 16.5789C7.93649 16.8798 7.78271 17.1447 7.54963 17.2997C7.93268 17.2106 8.21849 16.8678 8.21849 16.4576C8.21842 15.9797 7.83097 15.5921 7.35316 15.5921Z" fill="#484149"/>
<path d="M31.9785 17.2566C31.9785 17.2971 31.9458 17.3298 31.9053 17.3298H20.5732C20.5327 17.3298 20.5 17.2971 20.5 17.2566V17.0019C20.5 16.9614 20.5327 16.9287 20.5732 16.9287H31.9053C31.9458 16.9287 31.9785 16.9614 31.9785 17.0019V17.2566Z" fill="#342F35"/>
<path d="M39.7887 17.7584C39.7887 17.7989 39.7559 17.8317 39.7155 17.8317H36.6826C36.6421 17.8317 36.6094 17.7989 36.6094 17.7584V17.4023C36.6094 17.3618 36.6421 17.3291 36.6826 17.3291H39.7155C39.7559 17.3291 39.7887 17.3618 39.7887 17.4023V17.7584Z" fill="#5D595D"/>
<path d="M36.7915 17.0056C36.5894 17.0056 36.4254 16.8417 36.4254 16.6395C36.4254 15.282 35.5174 14.2967 34.2664 14.2967C33.1916 14.2967 32.1073 15.0212 32.1073 16.6395C32.1073 16.8417 31.9434 17.0056 31.7411 17.0056C31.539 17.0056 31.375 16.8417 31.375 16.6395C31.375 14.8289 32.564 13.5645 34.2664 13.5645C35.9417 13.5645 37.1577 14.8577 37.1577 16.6395C37.1577 16.8417 36.9938 17.0056 36.7915 17.0056Z" fill="#C7D3D2"/>
<g opacity="0.6">
<path d="M31.7433 17.0059C31.8942 17.0059 32.1049 16.9046 32.1094 16.6397C32.1094 15.0214 33.1938 14.297 34.2686 14.297C35.5196 14.297 36.4276 15.2823 36.4276 16.6397C36.4276 16.842 36.5915 17.0059 36.7937 17.0059C36.7937 17.0059 37.0161 15.1565 35.6299 14.2493C34.2438 13.3423 31.6812 13.7842 31.7433 17.0059Z" fill="#C7D3D2"/>
</g>
<path d="M36.1723 17.2617C36.6166 16.2108 36.1249 14.9988 35.074 14.5546C34.0232 14.1104 32.8112 14.6021 32.3669 15.653C31.9226 16.7038 32.4144 17.9158 33.4652 18.36C34.5161 18.8043 35.7281 18.3125 36.1723 17.2617Z" fill="#5D595D"/>
<path d="M33.3984 16.4567C33.3984 16.9345 33.7858 17.322 34.2638 17.322C34.7417 17.322 35.129 16.9345 35.129 16.4567C35.129 15.9789 34.7417 15.5913 34.2638 15.5913C33.7858 15.5913 33.3984 15.9789 33.3984 16.4567Z" fill="#342F35"/>
<path d="M35.1328 16.4567C35.1328 15.9789 34.7454 15.5913 34.2675 15.5913C34.0905 15.5913 33.9261 15.6446 33.7891 15.7359C33.8523 15.7212 33.9179 15.7126 33.9856 15.7126C34.4635 15.7126 34.8509 16.1002 34.8509 16.5781C34.8509 16.879 34.6971 17.1439 34.464 17.2989C34.8471 17.2098 35.1328 16.8669 35.1328 16.4567Z" fill="#484149"/>
<path d="M24.3242 17.3281C24.3242 17.392 24.3759 17.4437 24.4398 17.4437H31.0097C31.0735 17.4437 31.1253 17.392 31.1253 17.3281V14.6282C31.1253 14.5645 31.0735 14.5127 31.0097 14.5127H24.4398C24.3759 14.5127 24.3242 14.5645 24.3242 14.6282V17.3281Z" fill="#5D595D"/>
<path d="M30.122 17.5023C30.122 17.5294 30.1 17.5516 30.0728 17.5516C30.0455 17.5516 30.0234 17.5294 30.0234 17.5023V14.4527C30.0234 14.4255 30.0455 14.4033 30.0728 14.4033C30.1 14.4033 30.122 14.4255 30.122 14.4527V17.5023Z" fill="#342F35"/>
<path d="M25.4306 17.5023C25.4306 17.5294 25.4086 17.5516 25.3813 17.5516C25.3541 17.5516 25.332 17.5294 25.332 17.5023V14.4527C25.332 14.4255 25.3541 14.4033 25.3813 14.4033C25.4086 14.4033 25.4306 14.4255 25.4306 14.4527V17.5023Z" fill="#342F35"/>
</svg>
