<svg width="24" height="24" viewBox="0 0 24 24" fill="none" xmlns="http://www.w3.org/2000/svg">
<path fill-rule="evenodd" clip-rule="evenodd" d="M8.161 2.58002C8.42148 2.44969 8.70874 2.38184 9 2.38184C9.29126 2.38184 9.57852 2.44969 9.839 2.58002L14.832 5.07802C14.938 5.13002 15.062 5.13002 15.168 5.07802L19.037 3.14302C19.3228 3.00021 19.6404 2.93282 19.9596 2.94725C20.2788 2.96167 20.5891 3.05743 20.8609 3.22544C21.1327 3.39344 21.357 3.62812 21.5126 3.9072C21.6682 4.18628 21.7499 4.50049 21.75 4.82002V17.305C21.75 18.015 21.349 18.665 20.713 18.982L15.838 21.419C15.5778 21.549 15.2909 21.6167 15 21.6167C14.7091 21.6167 14.4222 21.549 14.162 21.419L9.168 18.922C9.11585 18.8959 9.05833 18.8823 9 18.8823C8.94167 18.8823 8.88415 18.8959 8.832 18.922L4.964 20.857C4.67812 21.0001 4.36042 21.0676 4.04107 21.0533C3.72173 21.039 3.41134 20.9433 3.1394 20.7753C2.86746 20.6072 2.643 20.3725 2.48733 20.0933C2.33167 19.8141 2.24997 19.4997 2.25 19.18V6.69502C2.25 5.98502 2.651 5.33502 3.286 5.01802L8.161 2.58102V2.58002ZM9 6.00002C9.19891 6.00002 9.38968 6.07904 9.53033 6.21969C9.67098 6.36034 9.75 6.55111 9.75 6.75002V15C9.75 15.1989 9.67098 15.3897 9.53033 15.5304C9.38968 15.671 9.19891 15.75 9 15.75C8.80109 15.75 8.61032 15.671 8.46967 15.5304C8.32902 15.3897 8.25 15.1989 8.25 15V6.75002C8.25 6.55111 8.32902 6.36034 8.46967 6.21969C8.61032 6.07904 8.80109 6.00002 9 6.00002ZM15.75 9.00002C15.75 8.80111 15.671 8.61034 15.5303 8.46969C15.3897 8.32904 15.1989 8.25002 15 8.25002C14.8011 8.25002 14.6103 8.32904 14.4697 8.46969C14.329 8.61034 14.25 8.80111 14.25 9.00002V17.25C14.25 17.4489 14.329 17.6397 14.4697 17.7804C14.6103 17.921 14.8011 18 15 18C15.1989 18 15.3897 17.921 15.5303 17.7804C15.671 17.6397 15.75 17.4489 15.75 17.25V9.00002Z" fill="#C8202F"/>
</svg>
