<svg width="20" height="20" viewBox="0 0 20 20" fill="none" xmlns="http://www.w3.org/2000/svg">
<path d="M6.75 4.36671V12.6167M12.75 6.61671V14.8667M13.253 18.3647L18.128 15.9277C18.509 15.7377 18.75 15.3477 18.75 14.9217V2.43671C18.75 1.60071 17.87 1.05671 17.122 1.43071L13.253 3.36471C12.936 3.52371 12.563 3.52371 12.247 3.36471L7.253 0.868712C7.09682 0.790643 6.92461 0.75 6.75 0.75C6.57539 0.75 6.40318 0.790643 6.247 0.868712L1.372 3.30571C0.99 3.49671 0.75 3.88671 0.75 4.31171V16.7967C0.75 17.6327 1.63 18.1767 2.378 17.8027L6.247 15.8687C6.564 15.7097 6.937 15.7097 7.253 15.8687L12.247 18.3657C12.564 18.5237 12.937 18.5237 13.253 18.3657V18.3647Z" stroke="#717375" stroke-width="1.5" stroke-linecap="round" stroke-linejoin="round"/>
</svg>
