<svg width="39" height="39" viewBox="0 0 39 39" fill="none" xmlns="http://www.w3.org/2000/svg">
<path fill-rule="evenodd" clip-rule="evenodd" d="M13.546 0.454177C14.143 0.155502 14.8013 0 15.4688 0C16.1362 0 16.7945 0.155502 17.3915 0.454177L28.8337 6.17876C29.0767 6.29793 29.3608 6.29793 29.6038 6.17876L38.4702 1.74439C39.1253 1.41712 39.8531 1.26268 40.5846 1.29573C41.3161 1.32879 42.027 1.54824 42.6499 1.93325C43.2728 2.31827 43.7869 2.85608 44.1435 3.49563C44.5001 4.13518 44.6874 4.85526 44.6875 5.58751V34.199C44.6875 35.8261 43.7685 37.3156 42.311 38.0421L31.1392 43.6269C30.5428 43.9248 29.8854 44.0799 29.2188 44.0799C28.5521 44.0799 27.8947 43.9248 27.2983 43.6269L15.8538 37.9046C15.7342 37.8447 15.6024 37.8135 15.4688 37.8135C15.3351 37.8135 15.2033 37.8447 15.0837 37.9046L6.21958 42.339C5.56445 42.6668 4.83638 42.8216 4.10454 42.7888C3.37271 42.7561 2.66141 42.5367 2.03821 42.1516C1.41501 41.7665 0.900616 41.2285 0.543883 40.5887C0.18715 39.9488 -7.27902e-05 39.2284 2.12293e-08 38.4958V9.88439C2.12293e-08 8.2573 0.918958 6.76772 2.37417 6.04126L13.546 0.456469V0.454177ZM15.4688 8.29168C15.9246 8.29168 16.3618 8.47276 16.6841 8.79509C17.0064 9.11742 17.1875 9.55459 17.1875 10.0104V28.9167C17.1875 29.3725 17.0064 29.8097 16.6841 30.132C16.3618 30.4543 15.9246 30.6354 15.4688 30.6354C15.0129 30.6354 14.5757 30.4543 14.2534 30.132C13.9311 29.8097 13.75 29.3725 13.75 28.9167V10.0104C13.75 9.55459 13.9311 9.11742 14.2534 8.79509C14.5757 8.47276 15.0129 8.29168 15.4688 8.29168ZM30.9375 15.1667C30.9375 14.7108 30.7564 14.2737 30.4341 13.9513C30.1118 13.629 29.6746 13.4479 29.2188 13.4479C28.7629 13.4479 28.3257 13.629 28.0034 13.9513C27.6811 14.2737 27.5 14.7108 27.5 15.1667V34.0729C27.5 34.5288 27.6811 34.9659 28.0034 35.2883C28.3257 35.6106 28.7629 35.7917 29.2188 35.7917C29.6746 35.7917 30.1118 35.6106 30.4341 35.2883C30.7564 34.9659 30.9375 34.5288 30.9375 34.0729V15.1667Z" fill="#C8202F" fill-opacity="0.21"/>
</svg>
