<svg width="30" height="30" viewBox="0 0 30 30" fill="none" xmlns="http://www.w3.org/2000/svg">
<circle cx="15" cy="15" r="14.5" fill="white" stroke="#F3F3F3"/>
<path d="M10.082 19.3533C10.082 19.2032 10.142 19.059 10.248 18.9529L18.1055 11.0955L12.8535 11.0955C12.7034 11.0954 12.5593 11.0356 12.4531 10.9294C12.3471 10.8233 12.2871 10.6791 12.2871 10.5291C12.2872 10.379 12.347 10.2348 12.4531 10.1287C12.5593 10.0226 12.7035 9.96367 12.8535 9.96362L19.4717 9.96362C19.6217 9.96371 19.766 10.0226 19.8721 10.1287C19.9782 10.2348 20.037 10.379 20.0371 10.5291L20.0371 17.1472C20.0371 17.2973 19.9782 17.4415 19.8721 17.5476C19.766 17.6537 19.6217 17.7135 19.4717 17.7136C19.3216 17.7136 19.1774 17.6536 19.0713 17.5476C18.9652 17.4415 18.9053 17.2973 18.9053 17.1472L18.9053 11.8953L11.0479 19.7527C10.9417 19.8587 10.7975 19.9187 10.6475 19.9187C10.4976 19.9186 10.3541 19.8586 10.248 19.7527C10.1421 19.6466 10.0821 19.5032 10.082 19.3533Z" fill="black" stroke="black" stroke-width="0.25"/>
</svg>
