<svg width="16" height="16" viewBox="0 0 16 16" fill="none" xmlns="http://www.w3.org/2000/svg">
<path d="M8 5.33325C9.10457 5.33325 10 4.43782 10 3.33325C10 2.22868 9.10457 1.33325 8 1.33325C6.89543 1.33325 6 2.22868 6 3.33325C6 4.43782 6.89543 5.33325 8 5.33325Z" stroke="#757575" stroke-linecap="round" stroke-linejoin="round"/>
<path d="M4.33315 5.33325C4.04465 5.33625 3.76491 5.43274 3.53592 5.60824C3.30692 5.78374 3.14103 6.02878 3.06315 6.30659L1.39982 12.3333C1.34942 12.5283 1.34388 12.7322 1.38361 12.9298C1.42334 13.1273 1.50731 13.3132 1.62921 13.4736C1.75111 13.634 1.90777 13.7647 2.08742 13.8558C2.26708 13.947 2.46506 13.9963 2.66648 13.9999H13.3332C13.5389 13.9998 13.7419 13.9521 13.9262 13.8605C14.1104 13.7689 14.271 13.6359 14.3953 13.4719C14.5196 13.3079 14.6042 13.1174 14.6426 12.9152C14.681 12.713 14.672 12.5047 14.6165 12.3066L12.9332 6.33325C12.8597 6.04886 12.6945 5.79667 12.463 5.61584C12.2315 5.43502 11.9469 5.33568 11.6532 5.33325H4.33315Z" stroke="#757575" stroke-linecap="round" stroke-linejoin="round"/>
</svg>
